<svg xmlns="http://www.w3.org/2000/svg" xmlns:xlink="http://www.w3.org/1999/xlink" viewBox="0 0 416.57 342.62"><defs><style>.cls-1,.cls-15,.cls-18,.cls-34{fill:none;}.cls-2{isolation:isolate;}.cls-3,.cls-49,.cls-5{fill:#8bcde5;}.cls-3{opacity:0.67;}.cls-4,.cls-49{opacity:0.35;}.cls-6,.cls-8{opacity:0.48;}.cls-7{fill:#4d82a3;}.cls-12,.cls-16,.cls-25,.cls-40,.cls-48,.cls-8{fill:#fff;}.cls-9{fill:#5ca28b;}.cls-10{fill:#ecb751;}.cls-11{clip-path:url(#clip-path);}.cls-13,.cls-22{fill:#74471b;}.cls-13{opacity:0.15;}.cls-14{opacity:0.37;}.cls-15{stroke:#74471b;}.cls-15,.cls-18,.cls-34{stroke-miterlimit:10;}.cls-16{opacity:0.2;mix-blend-mode:overlay;}.cls-17{fill:#dc903c;}.cls-18{stroke:#dc903c;}.cls-19{clip-path:url(#clip-path-2);}.cls-20{opacity:0.38;}.cls-21,.cls-24{opacity:0.4;}.cls-23,.cls-24,.cls-28,.cls-30,.cls-31,.cls-39,.cls-46,.cls-47{fill:#2b3448;}.cls-23{opacity:0.21;}.cls-25{opacity:0.12;}.cls-26{clip-path:url(#clip-path-3);}.cls-27{opacity:0.29;}.cls-28{opacity:0.34;}.cls-29{opacity:0.5;}.cls-30,.cls-40{opacity:0.61;}.cls-31{opacity:0.58;}.cls-32{clip-path:url(#clip-path-4);}.cls-33{fill:#de6c6b;}.cls-34{stroke:#2b3448;opacity:0.27;}.cls-35{clip-path:url(#clip-path-5);}.cls-36{opacity:0.36;}.cls-37{clip-path:url(#clip-path-6);}.cls-38{opacity:0.3;}.cls-41{clip-path:url(#clip-path-7);}.cls-42{clip-path:url(#clip-path-8);}.cls-43{opacity:0.25;}.cls-44,.cls-48{opacity:0.52;}.cls-45{clip-path:url(#clip-path-9);}.cls-46{opacity:0.16;}.cls-47{opacity:0.11;}</style><clipPath id="clip-path" transform="translate(-41.72 -79.63)"><polygon class="cls-1" points="334.26 83.74 348.36 94.65 348.1 111.15 334.26 108.49 334.26 83.74"/></clipPath><clipPath id="clip-path-2" transform="translate(-41.72 -79.63)"><path class="cls-1" d="M151.12,354.76s8,11.73-2.08,18.7l68.44,28.63s8-11.24-1.68-25.63Z"/></clipPath><clipPath id="clip-path-3" transform="translate(-41.72 -79.63)"><path class="cls-1" d="M150.45,347.46l83.67,24.94s12.18-4.57,3.72-23.78L153,328.85Z"/></clipPath><clipPath id="clip-path-4" transform="translate(-41.72 -79.63)"><path class="cls-1" d="M148.07,319.79c-.69.67,82.31,20.85,82.31,20.85s10.56-2.74,1.42-22.74l-81.38-16.81S155,313.09,148.07,319.79Z"/></clipPath><clipPath id="clip-path-5" transform="translate(-41.72 -79.63)"><path class="cls-1" d="M144.52,291.76s4-6.42.74-19l64.66,14s5.13,15.47-2.6,23Z"/></clipPath><clipPath id="clip-path-6" transform="translate(-41.72 -79.63)"><path class="cls-1" d="M134.52,268.57l68.94,14.75s10.93-4.84,4.72-27.79l-71.86-8.59s5.12,13.6-1.54,20.56Z"/></clipPath><clipPath id="clip-path-7" transform="translate(-41.72 -79.63)"><path class="cls-1" d="M149.72,238.48l48.56,8.63.16-27.59-48.34-3.25S158.79,229.13,149.72,238.48Z"/></clipPath><clipPath id="clip-path-8" transform="translate(-41.72 -79.63)"><path class="cls-1" d="M85,330c-7-1.67-15-5.54-15.64-12.72-.35-4,1.88-8.07.93-12-1-4.2-5.2-6.66-8.79-9.06s-7.29-6.08-6.51-10.33c.71-3.86,4.88-6.27,5.91-10.07,1.8-6.62-6.56-11.92-7.13-18.76-.49-6,6.07-11.1,12.1-10.36s10.84,5.88,12.79,11.64c.92,2.75,1.35,5.72,2.94,8.14,3.93,6,13.5,6.64,16.54,13.11,2.29,4.87-.25,11,2,15.85,1.47,3.14,4.63,5.09,6.81,7.78,4.57,5.67,4.06,14.48-.37,20.26S94.53,332,87.26,331.53Z"/></clipPath><clipPath id="clip-path-9" transform="translate(-41.72 -79.63)"><path class="cls-1" d="M95.06,327c-7.17-4.85-14.54-12.62-12.17-20.95,1.32-4.67,5.56-8.28,6.16-13.1.64-5.15-3-9.71-6-13.93s-5.61-9.94-2.92-14.39c2.44-4,8.16-5,10.93-8.8,4.85-6.67-2.3-16.19,0-24.12,2-7,11.55-9.9,18-6.5s9.68,11.23,9.41,18.53c-.12,3.48-.91,7-.15,10.4,1.87,8.39,12.35,13.22,13,21.79.49,6.45-5,12.24-4.47,18.69.32,4.15,3,7.69,4.34,11.65,2.73,8.31-1.59,18-9,22.61s-17.24,4.47-25.21.84Z"/></clipPath></defs><g class="cls-2"><g id="OBJECTS"><ellipse class="cls-3" cx="209.31" cy="314.91" rx="202.89" ry="27.71"/><g class="cls-4"><path class="cls-5" d="M452.74,265.86c-7-21.37-22-40.72-42.64-49.71-21.44-9.34-48.52-7.9-64.71-24.76-8.69-9.06-12.32-21.68-18.18-32.78C307.37,121,262.54,102.88,220.11,100,175,97,125.62,110.38,99.11,147c-14.69,20.25-21,45.81-20.69,70.84C78.6,234.08,81,252,71.5,265.21c-4,5.62-9.76,9.72-14.5,14.74-13.81,14.61-18.11,36.7-13.52,56.27,4.14,17.62,14.79,33.18,28.29,45.33,34.08-8.76,101.57-14.73,179.26-14.73,81.25,0,151.33,6.53,183.73,15.95,11.63-14,17.55-32.15,20.75-50.17C459.44,310.45,459.76,287.23,452.74,265.86Z" transform="translate(-41.72 -79.63)"/></g><g class="cls-6"><path class="cls-7" d="M178.57,251.46c-10.6-7-22.18-15.59-23.88-28.2-1.09-8.07,2.06-17.1-2.29-24-3-4.72-8.64-6.87-13-10.3a26.32,26.32,0,0,1-10-19.81c-.15-5.82,1.65-11.64.76-17.39-1.32-8.6-8.23-15.08-14.74-20.85,7.21,1.25,14.51,2.53,21.14,5.63s12.6,8.28,15,15.18c2.55,7.26.95,15.58,4,22.65s9.85,11.32,15.3,16.6c15.51,15,19.65,40.53,9.7,59.71Z" transform="translate(-41.72 -79.63)"/></g><path class="cls-8" d="M114.69,131.38a23.7,23.7,0,0,1,13.5,3.61,19.11,19.11,0,0,1,5.18,4.84,21.93,21.93,0,0,1,1.92,3c.52,1.06,1,2.17,1.42,3.27A77.93,77.93,0,0,1,140,159.82c.8,4.61,1.31,9.29,2.73,13.68a14.87,14.87,0,0,0,3.3,5.88,10.19,10.19,0,0,0,2.71,2,31.54,31.54,0,0,1,3.07,1.84,45,45,0,0,1,5.52,4.48,50.38,50.38,0,0,1,4.81,5.2A43.61,43.61,0,0,1,169.26,205a27.1,27.1,0,0,1,1.58,6.87,19.53,19.53,0,0,1-.66,7,20.33,20.33,0,0,0,.4-7,26.94,26.94,0,0,0-1.77-6.73,43.54,43.54,0,0,0-7.28-11.84,51.71,51.71,0,0,0-10.25-9.41,27.09,27.09,0,0,0-3-1.76,11.15,11.15,0,0,1-3-2.13,15.76,15.76,0,0,1-3.57-6.24c-1.44-4.56-1.91-9.25-2.68-13.85a84.11,84.11,0,0,0-3.1-13.61c-.41-1.07-.82-2.15-1.32-3.2a22.72,22.72,0,0,0-1.79-3,18.88,18.88,0,0,0-5-4.81A23.92,23.92,0,0,0,114.69,131.38Z" transform="translate(-41.72 -79.63)"/><g class="cls-6"><path class="cls-7" d="M348.31,280.52c1.19-4.46-1.86-9.28-.6-13.73,1.6-5.69,9.09-8.06,13.83-12.14,5.07-4.37,7-10.78,8.64-16.86q2.64-9.49,5.26-19c-1.12,9.71,8.33,19.5,4.83,28.72-1.37,3.61-4.63,6.57-5.29,10.34-.8,4.52,2.29,8.88,3.49,13.37,2.13,7.95-2.37,16.75-10.48,20.52a16.73,16.73,0,0,1-11.92,1.14c-4.93-1.59-8.07-5.94-9.67-10.31Z" transform="translate(-41.72 -79.63)"/></g><path class="cls-8" d="M352.16,290.49a26,26,0,0,0,6.74-6.57,22.47,22.47,0,0,0,3.83-8.48,32.51,32.51,0,0,0,.58-4.64,42.71,42.71,0,0,1,.54-4.77,27.64,27.64,0,0,1,3.09-9.1c.79-1.41,1.72-2.72,2.6-4a20.47,20.47,0,0,0,1.2-2c.35-.7.69-1.41,1-2.13a63.83,63.83,0,0,0,3.14-8.89,40.64,40.64,0,0,0,1.48-9.29,23.58,23.58,0,0,0-1.33-9.3,22.81,22.81,0,0,1,1.82,9.31,41.47,41.47,0,0,1-1.23,9.47,54.53,54.53,0,0,1-3.05,9.06c-.32.74-.65,1.46-1,2.18a22.74,22.74,0,0,1-1.24,2.1c-.89,1.33-1.78,2.61-2.53,4a27.17,27.17,0,0,0-3.07,8.78,42.83,42.83,0,0,0-.57,4.67,28.75,28.75,0,0,1-.69,4.76A24.33,24.33,0,0,1,352.16,290.49Z" transform="translate(-41.72 -79.63)"/><g class="cls-6"><path class="cls-7" d="M346.8,328a28.57,28.57,0,0,1,9.83-25.06c7.6-6.5,18.65-9.42,24.24-17.55,6.26-9.11,3.44-21.53,8.24-31.41,5-10.34,17.49-16.06,22.56-26.39l-2,41.34c-.26,5.32-.55,10.77-2.68,15.7-4.2,9.7-15,16-18.27,26.06-1.3,3.91-1.34,8.09-2.12,12.13-1.46,7.57-5.93,14.94-13.12,18.52s-17.15,2.45-22.08-3.67c-1.6-2-3.77-4.76-6.14-3.65Z" transform="translate(-41.72 -79.63)"/></g><path class="cls-8" d="M356.17,325.86a31.59,31.59,0,0,0,6.82-2.47,21.93,21.93,0,0,0,5.86-4.17,14.78,14.78,0,0,0,3.66-6.06c.71-2.32,1.4-4.65,2.17-7,1.52-4.61,3.48-9.25,6.84-12.95a16.17,16.17,0,0,1,1.3-1.32l.68-.63.73-.58.73-.58.78-.51.77-.51.69-.5a26.84,26.84,0,0,0,4.49-5.51,106.4,106.4,0,0,0,6.88-12.75c2.05-4.39,3.88-8.88,5.6-13.41s3.25-9.14,4.52-13.82c.65-2.33,1.22-4.69,1.66-7.07a39,39,0,0,0,.73-7.23,35.41,35.41,0,0,1-.47,7.27c-.37,2.41-.86,4.79-1.44,7.15-1.18,4.73-2.64,9.38-4.27,14s-3.49,9.1-5.5,13.53a107.25,107.25,0,0,1-6.88,12.91,26.67,26.67,0,0,1-4.72,5.71l-.8.56-.74.5-.75.49-.7.54-.71.55-.65.6a15.1,15.1,0,0,0-1.26,1.27c-3.25,3.51-5.17,8-6.79,12.57-.81,2.28-1.54,4.6-2.29,6.91a15.13,15.13,0,0,1-3.92,6.21,22.08,22.08,0,0,1-6.08,4.06A29.45,29.45,0,0,1,356.17,325.86Z" transform="translate(-41.72 -79.63)"/><path class="cls-3" d="M149,373.46s-10.47-.46-7.19,5.29,63.21,31.19,72.24,32S366.75,388.6,368.4,384.49s-1.64-10.39-1.64-10.39Z" transform="translate(-41.72 -79.63)"/><rect class="cls-9" x="105.74" y="0.12" width="186.81" height="28.74"/><rect class="cls-10" x="244.3" y="0.12" width="9.27" height="28.74"/><rect class="cls-10" x="258.85" y="0.12" width="4.08" height="28.74"/><rect class="cls-10" x="268.22" y="0.12" width="1.24" height="28.74"/><polygon class="cls-9" points="292.55 0.12 310.91 14.76 306.65 15.02 292.55 4.11 292.55 0.12"/><path class="cls-10" d="M182.9,84.88H171.23a9.9,9.9,0,1,0,0,19.79H182.9Z" transform="translate(-41.72 -79.63)"/><rect class="cls-10" x="186.95" y="85.05" width="104.68" height="2.67" rx="1.26" transform="translate(-41.47 -80.3) rotate(0.16)"/><rect class="cls-10" x="186.85" y="90.57" width="104.68" height="2.67" rx="1.26" transform="translate(-41.47 -80.27) rotate(0.15)"/><rect class="cls-10" x="186.76" y="96.09" width="104.68" height="2.67" rx="1.26" transform="translate(-41.45 -80.27) rotate(0.15)"/><rect class="cls-10" x="186.66" y="101.61" width="104.68" height="2.67" rx="1.26" transform="translate(-41.44 -80.27) rotate(0.15)"/><g class="cls-11"><polygon class="cls-12" points="292.55 4.11 306.65 15.02 306.38 31.52 292.55 28.86 292.55 4.11"/><path class="cls-13" d="M347.69,110.9a35.33,35.33,0,0,1-11.52-12.65,40.37,40.37,0,0,1-1.91-4.12v14.36l13.84,2.66v0A1.86,1.86,0,0,1,347.69,110.9Z" transform="translate(-41.72 -79.63)"/><g class="cls-14"><line class="cls-15" x1="277.23" y1="0.44" x2="319.46" y2="23.74"/><line class="cls-15" x1="276.94" y1="6.57" x2="320.23" y2="25.12"/><line class="cls-15" x1="276.57" y1="14.53" x2="321.04" y2="26.54"/><line class="cls-15" x1="276.07" y1="25.27" x2="321.88" y2="28.03"/></g></g><rect class="cls-16" x="105.74" y="0.12" width="186.81" height="10.07"/><rect class="cls-13" x="105.74" y="23.24" width="186.81" height="5.63"/><path class="cls-10" d="M154,368.49l-9.28,3.92s-12.28,2.17,71.13,31.82l7.47-1.09Z" transform="translate(-41.72 -79.63)"/><path class="cls-10" d="M215.89,404.23s9.59-8-.09-27.77l147.88-21.81s9.65,13.32-.46,25.64Z" transform="translate(-41.72 -79.63)"/><path class="cls-12" d="M151.12,354.76s8,11.73-2.08,18.7l68.44,28.63s8-11.24-1.68-25.63Z" transform="translate(-41.72 -79.63)"/><path class="cls-10" d="M215.8,376.46l-69.23-22.75s-1.88-3.2,1.06-2.68l134.55-12.69,81.5,16.31Z" transform="translate(-41.72 -79.63)"/><path class="cls-17" d="M240.69,381a7.68,7.68,0,0,0-4.27-3.44,12.5,12.5,0,0,0,1.17,6.29,7.81,7.81,0,0,0,4.3,3.49A12.62,12.62,0,0,0,240.69,381Z" transform="translate(-41.72 -79.63)"/><path class="cls-17" d="M241.94,380.84a9.37,9.37,0,0,1,3.46-4.75,12.76,12.76,0,0,1,.1,6.49,9.39,9.39,0,0,1-3.48,4.78A12.89,12.89,0,0,1,241.94,380.84Z" transform="translate(-41.72 -79.63)"/><path class="cls-17" d="M243.18,393.25a8,8,0,0,0,4.36,3.57,12.91,12.91,0,0,0-1.24-6.45,7.9,7.9,0,0,0-4.33-3.51A12.75,12.75,0,0,0,243.18,393.25Z" transform="translate(-41.72 -79.63)"/><path class="cls-17" d="M241.88,393.09a9.46,9.46,0,0,1-3.51,4.83,13.23,13.23,0,0,1-.06-6.61,9.38,9.38,0,0,1,3.49-4.79A12.94,12.94,0,0,1,241.88,393.09Z" transform="translate(-41.72 -79.63)"/><polygon class="cls-18" points="206.2 317.19 196.73 318.71 194.74 297.96 204.05 296.4 206.2 317.19"/><path class="cls-17" d="M304.38,370.5a7.73,7.73,0,0,0-4.27-3.45,12.43,12.43,0,0,0,1.18,6.29,7.75,7.75,0,0,0,4.29,3.49A12.57,12.57,0,0,0,304.38,370.5Z" transform="translate(-41.72 -79.63)"/><path class="cls-17" d="M305.63,370.29a9.36,9.36,0,0,1,3.47-4.74,12.72,12.72,0,0,1,.1,6.48,9.39,9.39,0,0,1-3.48,4.78A12.83,12.83,0,0,1,305.63,370.29Z" transform="translate(-41.72 -79.63)"/><path class="cls-17" d="M306.88,382.71a7.94,7.94,0,0,0,4.36,3.56,13,13,0,0,0-1.24-6.44,7.89,7.89,0,0,0-4.33-3.52A12.68,12.68,0,0,0,306.88,382.71Z" transform="translate(-41.72 -79.63)"/><path class="cls-17" d="M305.58,382.55a9.46,9.46,0,0,1-3.51,4.82,13.17,13.17,0,0,1-.07-6.61,9.48,9.48,0,0,1,3.5-4.79A13.1,13.1,0,0,1,305.58,382.55Z" transform="translate(-41.72 -79.63)"/><polygon class="cls-18" points="269.9 306.64 260.43 308.16 258.43 287.42 267.75 285.86 269.9 306.64"/><path class="cls-17" d="M354.39,363.22a7.7,7.7,0,0,0-4.26-3.27,11.26,11.26,0,0,0,1.17,6,7.74,7.74,0,0,0,4.29,3.32A11.47,11.47,0,0,0,354.39,363.22Z" transform="translate(-41.72 -79.63)"/><path class="cls-17" d="M355.64,363a9.06,9.06,0,0,1,3.47-4.51,11.57,11.57,0,0,1,.1,6.17,9.07,9.07,0,0,1-3.49,4.55A11.72,11.72,0,0,1,355.64,363Z" transform="translate(-41.72 -79.63)"/><path class="cls-17" d="M356.88,374.83a8,8,0,0,0,4.36,3.39,11.78,11.78,0,0,0-1.23-6.13,7.88,7.88,0,0,0-4.34-3.34A11.61,11.61,0,0,0,356.88,374.83Z" transform="translate(-41.72 -79.63)"/><path class="cls-17" d="M355.59,374.68a9.15,9.15,0,0,1-3.51,4.59A12,12,0,0,1,352,373a9.08,9.08,0,0,1,3.49-4.55A11.8,11.8,0,0,1,355.59,374.68Z" transform="translate(-41.72 -79.63)"/><polygon class="cls-18" points="319.9 298.59 310.43 300.04 308.44 280.31 317.76 278.83 319.9 298.59"/><polygon class="cls-17" points="255.75 289.57 207.9 296.26 208.17 298.23 255.94 291.46 255.75 289.57"/><polygon class="cls-17" points="256.24 295.05 208.58 301.96 208.84 303.91 256.44 296.92 256.24 295.05"/><polygon class="cls-17" points="256.72 301.19 209.24 308.35 209.5 310.29 256.91 303.05 256.72 301.19"/><polygon class="cls-17" points="256.99 306.36 209.66 313.73 209.92 315.66 257.19 308.21 256.99 306.36"/><polygon class="cls-17" points="306.12 282.01 269.99 286.94 270.26 288.91 306.33 283.89 306.12 282.01"/><polygon class="cls-17" points="306.69 287.46 270.7 292.63 270.97 294.59 306.91 289.34 306.69 287.46"/><polygon class="cls-17" points="307.27 293.59 271.44 299.02 271.7 300.96 307.49 295.45 307.27 293.59"/><polygon class="cls-17" points="307.66 298.74 271.95 304.39 272.21 306.31 307.88 300.59 307.66 298.74"/><path class="cls-18" d="M223.69,401.25s7.62-9.83-.46-22.9" transform="translate(-41.72 -79.63)"/><g class="cls-19"><path class="cls-13" d="M209.15,383.66c-11.84,1.06-23.56-1.64-35-4.28a108.88,108.88,0,0,1-22.9-7.8,13.37,13.37,0,0,1-2.2,1.88l68.44,28.63s6-8.47,1.27-20.12A57.06,57.06,0,0,1,209.15,383.66Z" transform="translate(-41.72 -79.63)"/><g class="cls-20"><g class="cls-21"><path class="cls-22" d="M218.09,400.61c-1.19-1.08-45.07-19.05-68.1-28.4l.2-.49c.17.07,17.31,7,34.19,14,34.39,14.17,34.29,14.46,34.17,14.84l-.51-.17.25.08Z" transform="translate(-41.72 -79.63)"/></g><g class="cls-21"><path class="cls-22" d="M219.52,397.26c-1.2-1.07-45.12-18.94-68.17-28.23l.2-.49c.17.06,17.32,7,34.22,13.89,34.42,14.08,34.32,14.38,34.2,14.75l-.5-.16.25.08Z" transform="translate(-41.72 -79.63)"/></g><g class="cls-21"><path class="cls-22" d="M221.25,393.47c-1.2-1.06-45.26-18.56-68.39-27.67l.19-.49c.17.07,17.38,6.84,34.34,13.62,34.53,13.8,34.44,14.09,34.32,14.47l-.25-.08Z" transform="translate(-41.72 -79.63)"/></g><g class="cls-21"><path class="cls-22" d="M221.18,388.25c-1.24-1-45.8-17.2-69.19-25.61l.17-.5c.18.07,17.58,6.32,34.73,12.59,34.94,12.75,34.85,13,34.74,13.43l-.25-.07Z" transform="translate(-41.72 -79.63)"/></g><g class="cls-21"><path class="cls-22" d="M221.46,382.54c-1.26-1-46.19-16.12-69.77-24l.16-.5c.18.05,17.72,5.9,35,11.76,35.22,11.94,35.14,12.24,35,12.62l-.26-.06Z" transform="translate(-41.72 -79.63)"/></g></g></g><path class="cls-16" d="M253.88,381.37q37-5,74-9.91,19.95-2.68,39.9-5.46a25.16,25.16,0,0,0-4.07-11.35L215.8,376.46a44.76,44.76,0,0,1,3.58,9.81C230.7,383.67,242.39,382.92,253.88,381.37Z" transform="translate(-41.72 -79.63)"/><path class="cls-13" d="M345.48,377.2c-5.41.7-10.85,1.18-16.27,1.87s-10.67,1.48-16,2.31c-10.75,1.68-21.47,3.57-32.21,5.34-10.95,1.81-21.89,3.75-32.9,5.19-5,.65-9.92,1.18-14.87,1.88a71.7,71.7,0,0,1-13.24,1c-.68,6.54-4.11,9.43-4.11,9.43l147.33-23.94a20.68,20.68,0,0,0,3.54-6.19C359.65,375,352.58,376.27,345.48,377.2Z" transform="translate(-41.72 -79.63)"/><path class="cls-7" d="M150.94,345.68s-5.08-.25-4,1.89.81,3.2,6.16,5.32,77.78,24.06,77.77,23.26,138-21.25,138-21.25,8.77-12.31.18-28.3L286.5,315.36l-136.69,10.3s-4.53,1.88,3.21,3.19Z" transform="translate(-41.72 -79.63)"/><path class="cls-23" d="M355.69,349.56c-8.83,1.33-17.73,2.32-26.52,3.93-7.84,1.44-15.62,3.12-23.49,4.4-8.09,1.31-16.23,2.39-24.39,3.16s-16.23,1.62-24.35,2.47c-7.61.79-15.41,1.58-23,.71-14.8-1.7-28.61-7.72-42.79-11.88-7.79-2.28-15.67-4.26-23.51-6.38-3.6-1-7.11-2.09-10.64-3.31-1.8-.61-3.6-1.22-5.43-1.74l-.59,4.76s-5.08-.25-4,1.89.81,3.2,6.16,5.32,77.78,24.06,77.77,23.26,138-21.25,138-21.25a24.35,24.35,0,0,0,3.33-8.24C366.67,347.47,361.2,348.72,355.69,349.56Z" transform="translate(-41.72 -79.63)"/><path class="cls-24" d="M368.16,328.61a25.78,25.78,0,0,1,2.56,5.72,27.09,27.09,0,0,1,1.19,6.2,20.12,20.12,0,0,1-.64,6.32,14.52,14.52,0,0,1-3,5.49c1.21-.61,2.14-1.46,2.24-5.69a25,25,0,0,0,.39-6,37.85,37.85,0,0,0-.94-6.05A52.41,52.41,0,0,0,368.16,328.61Z" transform="translate(-41.72 -79.63)"/><path class="cls-10" d="M363.87,329.51,246.69,345.74l2.3,21.88,116.85-16.31Zm-2,21.06-1.74-19.22,2.72-.9,1.83,20.24Zm-109.66-4.91,52-7.2.95,9.67-52.88-2.27ZM358.9,330.87V331l-52.45,17.18h-.24l-1-9.87Zm-56.18,17.86-15,2.09.07.67,15-2.1-48.58,15.92-2-18.75ZM323,345.91l-12.73,1.77,48.76-16,1.7,18.81-50.43-2.16L323,346.58Zm-71.85.6,2,19.16-3.07,1-2.13-20.3Zm2.42,19.75.79-.11,0-.14,50.89-16.68.94,9.59,1.13-.16L306.3,349l.24-.08,53.54,2.3.67,0v.08l.44-.07.28,0-108.24,15.1Z" transform="translate(-41.72 -79.63)"/><path class="cls-25" d="M369.05,326.6l-.92-.13c-1.15.2-2.29.44-3.43.7-4.12,1-8.16,2.23-12.26,3.26s-8.55,2-12.83,2.89c-8.7,1.87-17.45,3.55-26.27,4.78-18.15,2.53-36.51,3-54.62,6-7.09,1.15-14.11,2.67-21.16,4a36.73,36.73,0,0,1,2.83,7.79,17.28,17.28,0,0,1,.15,8.21l1.23-.07a214.46,214.46,0,0,0,22.7-3.34q11.64-2.18,23.32-4.09c16-2.63,32.22-4,48.31-6.15,7.66-1,15.32-2.09,22.95-3.36,4.42-.74,9-2.59,13.58-3A29.17,29.17,0,0,0,369.05,326.6Z" transform="translate(-41.72 -79.63)"/><path class="cls-12" d="M150.45,347.46l83.67,24.94s12.18-4.57,3.72-23.78L153,328.85Z" transform="translate(-41.72 -79.63)"/><path class="cls-13" d="M238.42,350a75.81,75.81,0,0,1-11.79,2.93,152.33,152.33,0,0,1-44.36.94c-6.67-.84-13.33-2.05-19.94-3.32l-1.34-.26,73.23,22.15S245.65,368,238.43,350Z" transform="translate(-41.72 -79.63)"/><path class="cls-24" d="M241.14,347.08a37.1,37.1,0,0,1,2.55,6.43,32.3,32.3,0,0,1,1.31,6.84,17.29,17.29,0,0,1-.73,7,9.64,9.64,0,0,1-1.78,3.07,7.79,7.79,0,0,1-2.85,2,9,9,0,0,0,3.85-5.31,19.81,19.81,0,0,0,.46-6.66,48.19,48.19,0,0,0-1-6.71c-.24-1.12-.52-2.23-.83-3.33S241.47,348.18,241.14,347.08Z" transform="translate(-41.72 -79.63)"/><g class="cls-26"><g class="cls-27"><polygon class="cls-22" points="199.33 273.61 109.89 249.97 110.03 249.46 199.47 273.1 199.33 273.61"/></g><g class="cls-27"><polygon class="cls-22" points="201.17 277.05 108.61 252.31 108.75 251.8 201.31 276.54 201.17 277.05"/></g><g class="cls-27"><polygon class="cls-22" points="199.88 279.56 107.33 254.83 107.47 254.32 200.03 279.05 199.88 279.56"/></g><g class="cls-27"><polygon class="cls-22" points="199.81 282.44 107.25 257.71 107.4 257.2 199.96 281.94 199.81 282.44"/></g><g class="cls-27"><polygon class="cls-22" points="199.21 285.65 106.65 260.92 106.8 260.41 199.35 285.14 199.21 285.65"/></g><g class="cls-27"><polygon class="cls-22" points="199.14 288.54 106.58 263.8 106.72 263.29 199.28 288.03 199.14 288.54"/></g><g class="cls-27"><polygon class="cls-22" points="199.07 291.42 106.51 266.68 106.66 266.17 199.21 290.91 199.07 291.42"/></g></g><path class="cls-9" d="M143.54,321.41l87.12,22.43,136.67-18.31s9.31-9.64.19-24.83l-92.42-8.8-132.17,6s-1.86,2.94,7.49,3.18c0,0,8.46,11.83-2.35,18.7C148.07,319.79,142.19,316.87,143.54,321.41Z" transform="translate(-41.72 -79.63)"/><path class="cls-16" d="M368.46,302.39c-12.84,1.73-25.76,2.93-38.6,4.56-16.31,2.08-32.71,3.31-49.07,4.95-16.08,1.62-32,4.1-48.08,6h-.13c2.43,4.15,4.42,8.59,3.82,12.86.85,0,1.71,0,2.56,0,3.77-.07,7.5-.58,11.24-1s7.67-.88,11.5-1.33q11.52-1.35,23-2.78c15.41-1.87,30.83-3.74,46.29-5.27,13.47-1.34,26.91-3.14,40.38-4.48A23.09,23.09,0,0,0,368.46,302.39Z" transform="translate(-41.72 -79.63)"/><path class="cls-13" d="M350.76,323.6c-8.65,1-17.31,1.83-26,2.74-15.37,1.61-30.7,3.49-46,5.36q-11.5,1.4-23,2.75c-7.6.88-15.19,2-22.86,1.5a144.25,144.25,0,0,1-21.44-3.57c-7.18-1.6-14.39-3-21.6-4.48s-14.5-3-21.69-4.87c-3.58-.92-7.16-1.74-10.7-2.81-2.72-.82-5.45-1.63-8.23-2.2a19.2,19.2,0,0,1-1.37,1.77s-5.88-2.92-4.53,1.62l87.12,22.43,136.66-18.31a15.33,15.33,0,0,0,2.59-4.12C363.38,322.07,357.07,322.85,350.76,323.6Z" transform="translate(-41.72 -79.63)"/><rect class="cls-28" x="242.91" y="321.98" width="12.7" height="12.7" transform="translate(-203.93 273.45) rotate(-56.24)"/><g class="cls-29"><path class="cls-12" d="M254.88,327.2l-4.79,7.17.7-.19q-3.14-2.1-6.28-4.19c-.18-.13-.77-.38-.87-.59,0,0,0,0,.07-.06s.21-.32.31-.47c.82-1.21,1.63-2.43,2.44-3.64l2-3-.7.19,7.17,4.79c.16.11.77-.18.68-.24l-7.17-4.8a.74.74,0,0,0-.69.19l-4.8,7.17s0,0,0,.06l7.17,4.79a.76.76,0,0,0,.7-.19l4.79-7.17C255.64,327,255,327,254.88,327.2Z" transform="translate(-41.72 -79.63)"/></g><polygon class="cls-30" points="192.62 236.65 208.98 234.89 225.35 233.21 258.09 229.87 290.85 226.69 307.23 225.11 323.62 223.61 307.25 225.37 290.88 227.04 258.14 230.39 225.39 233.56 209.01 235.14 192.62 236.65"/><path class="cls-28" d="M263,313.61s13.67,13.84,4.42,25.21l11.91-1.36a27.77,27.77,0,0,0-4.73-24.92Z" transform="translate(-41.72 -79.63)"/><path class="cls-28" d="M343.67,305.54s13.05,12.24,3.79,22.61L360,326.89s4.6-11.07-4.72-22.33Z" transform="translate(-41.72 -79.63)"/><path class="cls-31" d="M236.6,340.24a24.19,24.19,0,0,0,1.05-5.14,30.11,30.11,0,0,0,0-5.2c-.11-.86-.16-1.73-.35-2.58-.08-.42-.14-.85-.23-1.28l-.31-1.27c-.18-.86-.5-1.68-.72-2.53s-.6-1.66-.85-2.52c.47.76.91,1.53,1.33,2.33a22.34,22.34,0,0,1,1,2.48,22,22,0,0,1,1.15,5.28,20.35,20.35,0,0,1-.26,5.4A14.4,14.4,0,0,1,236.6,340.24Z" transform="translate(-41.72 -79.63)"/><g class="cls-32"><path class="cls-12" d="M148.07,319.79c-.69.67,82.31,20.85,82.31,20.85s10.56-2.74,1.42-22.74l-81.38-16.81S155,313.09,148.07,319.79Z" transform="translate(-41.72 -79.63)"/><g class="cls-27"><rect class="cls-22" x="191.26" y="269.4" width="0.53" height="85.72" transform="translate(-195.94 353.64) rotate(-77.77)"/></g><g class="cls-27"><rect class="cls-22" x="191.55" y="272" width="0.53" height="87.64" transform="translate(-198.1 359.83) rotate(-78.28)"/></g><g class="cls-27"><rect class="cls-22" x="193.1" y="275.15" width="0.53" height="90.56" transform="translate(-202.33 362.33) rotate(-77.84)"/></g><g class="cls-27"><rect class="cls-22" x="192.87" y="279.09" width="0.53" height="91.06" transform="translate(-207.03 364.13) rotate(-77.64)"/></g><g class="cls-27"><rect class="cls-22" x="191.39" y="282.84" width="0.53" height="90.47" transform="translate(-213.09 360.59) rotate(-76.88)"/></g></g><path class="cls-13" d="M229.78,323a61,61,0,0,1-18.54,2.14c-7.6-.14-15.21-.91-22.78-1.68-8.38-.85-16.76-1.91-25.17-2.46-4.06-.27-8.13-.42-12.21-.54l-1.18,0c12.12,3.57,80.48,20.19,80.48,20.19s9.17-2.39,3-18.92C232.21,322.2,231,322.64,229.78,323Z" transform="translate(-41.72 -79.63)"/><polygon class="cls-33" points="182.61 247.56 181.88 271.06 184.27 268.38 185.62 271.85 186.61 248.35 182.61 247.56"/><path class="cls-33" d="M140,294.45l67.09,19.29,157.51-12s10.92-9.92,1-24l-113-11.94-113.37,2.25a1.82,1.82,0,0,0-1.18,3.17h0l7.22,1.58s10,14.82-.74,19l-4,.28Z" transform="translate(-41.72 -79.63)"/><path class="cls-13" d="M329.63,298.23c-16.11,1.43-32.14,3.65-48.25,5.08s-32.45,2.43-48.72,2.82c-7.92.19-15.88.38-23.8.12a112.75,112.75,0,0,1-23.53-3.55,175.8,175.8,0,0,1-21.83-6.95,171.74,171.74,0,0,0-17.72-6.4,9.52,9.52,0,0,1-1.26,2.41l-4,.28-.53,2.41,67.09,19.29,157.51-12a17.72,17.72,0,0,0,3.91-5.91C355.52,296.34,342.56,297.09,329.63,298.23Z" transform="translate(-41.72 -79.63)"/><path class="cls-24" d="M212.07,310.17a19,19,0,0,0,2.63-5.62,23.59,23.59,0,0,0,.9-6.08,24.49,24.49,0,0,0-.13-3.08c-.05-1-.29-2-.44-3.07s-.47-2-.69-3-.62-2-.89-3c.49.94.93,1.9,1.38,2.86s.75,2,1,3a23.8,23.8,0,0,1,.82,6.35,19.7,19.7,0,0,1-1.18,6.32A14,14,0,0,1,212.07,310.17Z" transform="translate(-41.72 -79.63)"/><path class="cls-24" d="M363.15,299.68a14.64,14.64,0,0,0,2.54-4.64,16.36,16.36,0,0,0,.83-5.14,17.42,17.42,0,0,0-.21-2.6,23.23,23.23,0,0,0-.51-2.59c-.22-.86-.54-1.69-.79-2.55s-.67-1.66-1-2.53c.5.75,1,1.54,1.44,2.32s.8,1.64,1.09,2.51a17.05,17.05,0,0,1,1,5.44,13.86,13.86,0,0,1-1.13,5.43A10.79,10.79,0,0,1,363.15,299.68Z" transform="translate(-41.72 -79.63)"/><ellipse class="cls-34" cx="231.02" cy="298.23" rx="8.23" ry="8.98" transform="translate(-42.62 -78.93) rotate(-0.17)"/><path class="cls-34" d="M361.08,290.05c0,5-3.66,9-8.21,9s-8.24-4-8.26-9,3.66-9,8.21-9S361.07,285.09,361.08,290.05Z" transform="translate(-41.72 -79.63)"/><path class="cls-28" d="M289.8,282.47s7.66,13.29,1.41,24.87l19-1.51s5.29-11.15-2.24-24.42Z" transform="translate(-41.72 -79.63)"/><polygon class="cls-28" points="192.87 222.36 190.03 221.41 187.63 223.21 187.66 220.21 185.2 218.48 188.06 217.59 188.94 214.72 190.68 217.16 193.68 217.11 191.9 219.52 192.87 222.36"/><path class="cls-16" d="M209.92,286.76l155.66-9s3.87,5.88,3.88,9.47l-157.65,8.86S212.46,288.61,209.92,286.76Z" transform="translate(-41.72 -79.63)"/><g class="cls-35"><path class="cls-12" d="M144.52,291.76s4-6.42.74-19l64.66,14s5.13,15.47-2.6,23Z" transform="translate(-41.72 -79.63)"/><g class="cls-36"><polygon class="cls-22" points="170.25 209.52 96.39 194.21 96.49 193.69 170.36 209 170.25 209.52"/></g><g class="cls-36"><polygon class="cls-22" points="173.54 213.81 95.78 197.68 95.89 197.16 173.65 213.29 173.54 213.81"/></g><g class="cls-36"><polygon class="cls-22" points="172.53 216.88 94.77 200.75 94.88 200.24 172.63 216.36 172.53 216.88"/></g><g class="cls-36"><polygon class="cls-22" points="172.54 220.35 94.78 204.23 94.89 203.71 172.64 219.83 172.54 220.35"/></g><g class="cls-36"><rect class="cls-22" x="175.17" y="255.23" width="0.53" height="79.41" transform="translate(-192.81 320.86) rotate(-77.17)"/></g><g class="cls-36"><rect class="cls-22" x="174.03" y="258.31" width="0.53" height="79.41" transform="translate(-197.92 318.19) rotate(-76.48)"/></g></g><path class="cls-13" d="M203,293.63c-9.61,2.89-20,2.94-29.89,2.09-9.56-.82-18.89-2.8-28.27-4.65a7.29,7.29,0,0,1-.35.69l62.8,18c5.37-5.22,4.53-14.28,3.52-19.33A40.16,40.16,0,0,1,203,293.63Z" transform="translate(-41.72 -79.63)"/><path class="cls-17" d="M129.24,269.51,204,284.92l151.65-8.21s6.39-6.42,1.79-26.17l-91.37-12-134.75,7.64,5,.77s10.05,14-1.54,20.56Z" transform="translate(-41.72 -79.63)"/><rect class="cls-12" x="223.38" y="254.68" width="5.87" height="29.32" transform="translate(-55.05 -67.84) rotate(-2.9)"/><rect class="cls-12" x="234.05" y="254.14" width="5.87" height="29.32" transform="translate(-55.01 -67.3) rotate(-2.9)"/><rect class="cls-12" x="329.06" y="252.02" width="5.87" height="25.86" transform="translate(-50.71 -67.95) rotate(-1.99)"/><rect class="cls-12" x="339.74" y="251.65" width="5.87" height="25.86" transform="translate(-50.69 -67.58) rotate(-1.99)"/><path class="cls-16" d="M208.18,255.53l149.26-5a80.54,80.54,0,0,1,1.3,8.58L209.54,264S209.54,257.21,208.18,255.53Z" transform="translate(-41.72 -79.63)"/><path class="cls-13" d="M203.46,283.32a12.41,12.41,0,0,0,5.11-6.57l149.53-7.86a13.75,13.75,0,0,1-2.45,7.82L204,284.92l-74.76-15.41,3.52-1.29Z" transform="translate(-41.72 -79.63)"/><g class="cls-37"><path class="cls-12" d="M134.52,268.57l68.94,14.75s10.93-4.84,4.72-27.79l-71.86-8.59s5.12,13.6-1.54,20.56Z" transform="translate(-41.72 -79.63)"/><path class="cls-13" d="M196.31,271.85c-7.66,3.11-16.39,3.18-24.52,2.7a163.12,163.12,0,0,1-25-3.38c-3.71-.81-7.37-1.75-11-2.66l-1.14-.28-.08.34,68.94,14.75s9.18-4.08,5.92-22.46A28,28,0,0,1,196.31,271.85Z" transform="translate(-41.72 -79.63)"/><g class="cls-29"><rect class="cls-22" x="171.69" y="214.06" width="0.53" height="79.81" transform="translate(-144.93 309.79) rotate(-82.11)"/></g><g class="cls-29"><rect class="cls-22" x="171.62" y="217.77" width="0.53" height="79.81" transform="translate(-148.67 312.91) rotate(-82.11)"/></g><g class="cls-29"><rect class="cls-22" x="171.88" y="221.81" width="0.53" height="79.81" transform="matrix(0.14, -0.99, 0.99, 0.14, -152.45, 316.66)"/></g><g class="cls-29"><rect class="cls-22" x="172.48" y="225.87" width="0.53" height="79.81" transform="translate(-155.95 320.75) rotate(-82.11)"/></g><g class="cls-29"><rect class="cls-22" x="172.4" y="229.91" width="0.53" height="79.81" transform="translate(-162.13 319.48) rotate(-81.19)"/></g><g class="cls-29"><rect class="cls-22" x="171.33" y="233.61" width="0.53" height="79.81" transform="translate(-168.75 316.68) rotate(-80.25)"/></g><polygon class="cls-33" points="98.12 173.08 96.76 175.32 118.54 178.9 119.09 176.48 98.12 173.08"/><polygon class="cls-10" points="117.18 183.85 115.78 186.07 137.5 190.02 138.09 187.61 117.18 183.85"/><polygon class="cls-17" points="127.59 193.01 126.19 195.22 147.9 199.18 148.5 196.76 127.59 193.01"/></g><rect class="cls-10" x="126.06" y="85.41" width="195.37" height="29.03"/><rect class="cls-13" x="126.06" y="105.13" width="195.37" height="9.31"/><rect class="cls-16" x="126.06" y="85.41" width="195.37" height="10.74"/><g class="cls-38"><path class="cls-39" d="M176.06,166.64V192.4h38.18V166.64Zm37.12,20-.1,0-3.36,2.37-3.54-2.4,3.94-2.81,2.87,2.06.19-.09Zm-7.7-.56L201,183l4.07-2.93,4.38,3.15Zm-28.36-.32.11.05,2.87-2.06,3.93,2.81-3.54,2.4-3.35-2.37h0Zm3.66-2.5,4.38-3.15,4.07,2.93-4.5,3Zm-3.66-10.73.11,0,3.39-2.39,3.54,2.39-4.06,2.9-3-2.13h0Zm7.74.53,4.49,3-4.19,3-4.38-3.16Zm28.32.34-.1-.05-3,2.13-4.06-2.9,3.53-2.39,3.4,2.39.19-.1Zm-3.74,2.57-4.38,3.16-4.2-3,4.5-3Zm-5.06,3.65-4.09,2.94-4.48-3,4.35-3Zm-4.2-4-4.39-3.17,4.35-3.13,4.54,3.25Zm-.7.47-4.37,3-4.38-3,4.38-3.15Zm-5.07,3.44-4.48,3-4.09-2.94,4.22-3ZM190,175.58l-4.49-3.05,4.54-3.25,4.35,3.13Zm-5.55,4-4.38,3.15-3-2.13v-2l3-2.13Zm5.43,3.9,4.52,3.26-4.35,3.13-4.67-3.34Zm.7-.47,4.5-3,4.5,3-4.5,3.24Zm9.7.47,4.49,3.05-4.66,3.34-4.35-3.13Zm5.43-3.9,4.38-3.16,3.06,2.19v1.93l-3.06,2.19Zm5.06-3.65,2.38-1.71v3.42Zm2.38-4.23-2.89-2,2.89-1.95Zm-3.57-2.51-2.75-1.94h5.61Zm-.7.47-3.53,2.4-4.56-3.27,2.13-1.54h2.54Zm-8.78-1.36-1.46-1.05h2.92Zm-.68.49-4.34,3.13-4.35-3.13,2-1.45-.19-.09h5l-.19.09Zm-9.37-.49-1.46-1.05h2.93Zm-.68.49-4.56,3.27-3.53-2.4,3.42-2.41h2.53Zm-8.79.4-2.86-1.94h5.6Zm-.69.48-2.8,2v-3.87Zm-2.8,4.61,2.3,1.65-2.3,1.65Zm2.3,8.94-2.3,1.65v-3.3Zm-2.3,4.29,2.68,1.88-2.68,1.81Zm3.36,2.36,2.71,1.91h-5.53Zm.7-.47,3.53-2.39,4.69,3.35-2,1.42h-2.87Zm8.9,1.45,1.3.93h-2.59Zm.68-.49,4.35-3.13,4.34,3.13-1.93,1.38.08,0h-5l.08,0Zm9.37.49,1.3.93h-2.6Zm.69-.49,4.69-3.35L209,189.4l-3.39,2.38h-2.86Zm8.92-.49,2.81,1.91H207Zm.68-.48,2.76-1.94v3.81Zm2.76-4.46-2.38-1.71,2.38-1.71Z" transform="translate(-41.72 -79.63)"/><rect class="cls-39" x="174.94" y="85.38" width="2.98" height="28.8"/><path class="cls-39" d="M222.17,166.64V192.4h38.17V166.64Zm37.11,20-.1,0-3.36,2.37-3.53-2.4,3.93-2.81,2.87,2.06.19-.09Zm-7.69-.56-4.5-3,4.07-2.93,4.38,3.15Zm-28.36-.32.1.05,2.87-2.06,3.94,2.81-3.54,2.4-3.36-2.37h0Zm3.65-2.5,4.38-3.15,4.07,2.93-4.49,3Zm-3.65-10.73.1,0,3.39-2.39,3.54,2.39-4.06,2.9-3-2.13h0ZM231,173l4.5,3-4.2,3-4.38-3.16Zm28.32.34-.1-.05-3,2.13-4.06-2.9,3.54-2.39,3.39,2.39.19-.1Zm-3.74,2.57-4.38,3.16-4.2-3,4.5-3Zm-5.06,3.65-4.09,2.94-4.48-3,4.35-3Zm-4.19-4-4.4-3.17,4.35-3.13,4.54,3.25Zm-.7.47-4.38,3-4.37-3,4.37-3.15Zm-5.08,3.44-4.48,3-4.09-2.94,4.22-3Zm-4.37-3.91-4.5-3.05,4.54-3.25,4.35,3.13Zm-5.56,4-4.38,3.15-3-2.13v-2l3-2.13Zm5.43,3.9,4.52,3.26-4.35,3.13-4.67-3.34Zm.7-.47,4.5-3,4.5,3-4.5,3.24Zm9.7.47,4.5,3.05-4.67,3.34-4.35-3.13Zm5.43-3.9,4.38-3.16,3.06,2.19v1.93l-3.06,2.19Zm5.06-3.65,2.38-1.71v3.42Zm2.38-4.23-2.88-2,2.88-1.95Zm-3.57-2.51L253,167.25h5.61Zm-.7.47-3.53,2.4-4.56-3.27,2.14-1.54h2.53Zm-8.77-1.36-1.47-1.05h2.92Zm-.68.49-4.35,3.13-4.35-3.13,2-1.45-.19-.09h5l-.19.09Zm-9.37-.49-1.46-1.05h2.92Zm-.69.49-4.56,3.27-3.53-2.4,3.42-2.41h2.54Zm-8.79.4-2.86-1.94h5.61Zm-.69.48-2.79,2v-3.87Zm-2.79,4.61,2.29,1.65-2.29,1.65Zm2.29,8.94-2.29,1.65v-3.3Zm-2.29,4.29,2.67,1.88-2.67,1.81Zm3.35,2.36,2.72,1.91h-5.54Zm.7-.47,3.53-2.39,4.69,3.35-2,1.42h-2.86Zm8.91,1.45,1.3.93h-2.6Zm.68-.49,4.34-3.13,4.35,3.13-1.94,1.38.08,0h-5l.08,0Zm9.37.49,1.29.93h-2.6Zm.68-.49,4.69-3.35,3.53,2.39-3.39,2.38h-2.86Zm8.92-.49,2.82,1.91h-5.53Zm.68-.48,2.76-1.94v3.81Zm2.76-4.46-2.38-1.71,2.38-1.71Z" transform="translate(-41.72 -79.63)"/><rect class="cls-39" x="221.04" y="85.38" width="2.98" height="28.8"/><path class="cls-39" d="M268.27,166.64V192.4h38.17V166.64Zm37.12,20-.1,0-3.36,2.37-3.54-2.4,3.93-2.81,2.87,2.06.2-.09Zm-7.7-.56-4.5-3,4.08-2.93,4.37,3.15Zm-28.36-.32.11.05,2.87-2.06,3.93,2.81-3.54,2.4-3.36-2.37h0Zm3.66-2.5,4.37-3.15,4.08,2.93-4.5,3Zm-3.66-10.73.1,0,3.4-2.39,3.53,2.39-4.05,2.9-3-2.13h0Zm7.73.53,4.5,3-4.2,3L273,175.93Zm28.33.34-.11-.05-3,2.13-4.05-2.9,3.53-2.39,3.4,2.39.19-.1Zm-3.75,2.57-4.37,3.16-4.2-3,4.5-3Zm-5.05,3.65-4.1,2.94-4.48-3,4.36-3Zm-4.2-4L288,172.41l4.34-3.13,4.55,3.25Zm-.7.47-4.37,3-4.38-3,4.38-3.15Zm-5.07,3.44-4.48,3-4.1-2.94,4.22-3Zm-4.38-3.91-4.5-3.05,4.55-3.25,4.34,3.13Zm-5.56,4-4.38,3.15-3-2.13v-2l3-2.13Zm5.43,3.9,4.52,3.26-4.34,3.13-4.67-3.34Zm.7-.47,4.51-3,4.5,3-4.5,3.24Zm9.71.47,4.49,3.05-4.67,3.34L288,186.74Zm5.43-3.9,4.38-3.16,3.06,2.19v1.93l-3.06,2.19Zm5.06-3.65,2.38-1.71v3.42Zm2.38-4.23-2.89-2,2.89-1.95Zm-3.57-2.51-2.75-1.94h5.61Zm-.7.47-3.53,2.4L293,168.79l2.14-1.54h2.53Zm-8.78-1.36-1.46-1.05h2.92Zm-.68.49-4.34,3.13L283,168.79l2-1.45-.19-.09h5l-.19.09Zm-9.37-.49-1.46-1.05h2.92Zm-.68.49L277,172.06l-3.53-2.4,3.43-2.41h2.53Zm-8.8.4L270,167.25h5.61Zm-.68.48-2.8,2v-3.87Zm-2.8,4.61,2.29,1.65-2.29,1.65Zm2.3,8.94-2.3,1.65v-3.3Zm-2.3,4.29,2.67,1.88-2.67,1.81Zm3.36,2.36,2.71,1.91h-5.53Zm.7-.47,3.53-2.39,4.69,3.35-2,1.42h-2.86Zm8.9,1.45,1.3.93H281Zm.68-.49,4.35-3.13,4.34,3.13-1.93,1.38.08,0h-5l.08,0Zm9.37.49,1.3.93H291Zm.68-.49,4.69-3.35,3.53,2.39-3.38,2.38H295Zm8.92-.49,2.82,1.91h-5.53Zm.69-.48,2.76-1.94v3.81Zm2.76-4.46L303,183.22l2.38-1.71Z" transform="translate(-41.72 -79.63)"/><rect class="cls-39" x="267.14" y="85.38" width="2.98" height="28.8"/><path class="cls-39" d="M314.38,166.64V192.4h38.17V166.64Zm37.11,20-.1,0L348,188.92l-3.53-2.4,3.93-2.81,2.87,2.06.19-.09Zm-7.7-.56-4.49-3,4.07-2.93,4.38,3.15Zm-28.36-.32.11.05,2.87-2.06,3.93,2.81-3.53,2.4-3.36-2.37h0Zm3.66-2.5,4.38-3.15,4.07,2.93-4.5,3Zm-3.66-10.73.11,0,3.39-2.39,3.54,2.39-4.06,2.9-3-2.13h0Zm7.74.53,4.5,3-4.2,3-4.38-3.16Zm28.32.34-.1-.05-3,2.13-4.06-2.9,3.54-2.39,3.39,2.39.19-.1Zm-3.74,2.57-4.38,3.16-4.2-3,4.5-3Zm-5.06,3.65-4.09,2.94-4.48-3,4.35-3Zm-4.19-4-4.4-3.17,4.35-3.13,4.54,3.25Zm-.71.47-4.37,3-4.38-3,4.38-3.15Zm-5.07,3.44-4.48,3-4.09-2.94,4.22-3Zm-4.38-3.91-4.49-3.05,4.54-3.25,4.35,3.13Zm-5.55,4-4.38,3.15-3-2.13v-2l3-2.13Zm5.43,3.9,4.52,3.26-4.35,3.13-4.67-3.34Zm.7-.47,4.5-3,4.5,3-4.5,3.24Zm9.7.47,4.5,3.05-4.67,3.34-4.35-3.13Zm5.43-3.9,4.38-3.16,3.06,2.19v1.93l-3.06,2.19Zm5.06-3.65,2.38-1.71v3.42Zm2.38-4.23-2.88-2,2.88-1.95Zm-3.57-2.51-2.75-1.94h5.61Zm-.7.47-3.53,2.4-4.56-3.27,2.13-1.54h2.54Zm-8.77-1.36L337,167.25h2.92Zm-.68.49-4.35,3.13-4.35-3.13,2-1.45-.19-.09h5l-.19.09Zm-9.38-.49-1.45-1.05h2.92Zm-.68.49-4.56,3.27-3.53-2.4,3.42-2.41h2.53Zm-8.79.4-2.86-1.94h5.61Zm-.69.48-2.8,2v-3.87Zm-2.8,4.61,2.3,1.65-2.3,1.65Zm2.3,8.94-2.3,1.65v-3.3Zm-2.3,4.29,2.68,1.88-2.68,1.81Zm3.36,2.36,2.71,1.91H316Zm.7-.47L323,187l4.69,3.35-2,1.42h-2.86Zm8.9,1.45,1.31.93h-2.6Zm.68-.49,4.35-3.13,4.35,3.13-1.94,1.38.08,0h-5l.08,0Zm9.37.49,1.3.93h-2.6Zm.69-.49,4.69-3.35,3.53,2.39L344,191.78H341.1Zm8.92-.49,2.82,1.91h-5.53Zm.68-.48,2.76-1.94v3.81Zm2.76-4.46-2.38-1.71,2.38-1.71Z" transform="translate(-41.72 -79.63)"/></g><polygon class="cls-7" points="322.74 140.64 125.28 135.67 124.75 113.7 322.74 113.7 322.74 140.64"/><rect class="cls-10" x="167.52" y="118.25" width="145.27" height="14.95" rx="7.07"/><circle class="cls-10" cx="190.81" cy="205.62" r="7.74" transform="translate(-94.97 264.26) rotate(-76.67)"/><polygon class="cls-16" points="322.74 120.39 322.74 113.7 124.75 113.7 124.91 120.39 322.74 120.39"/><polygon class="cls-13" points="125.2 132.45 125.28 135.67 322.74 140.64 322.74 132.45 125.2 132.45"/><path class="cls-39" d="M198.28,249.51l.27-33.61,166.09,3s6.41,15.3-1.6,30.6Z" transform="translate(-41.72 -79.63)"/><path class="cls-39" d="M198.73,249.58s-37.72-5.17-53-9.48c0,0-1.62-2.58,3.74-1.43,0,0,15.39-9.57.29-22.5,0,0-5.56.29-5.27-1.15s54.28,1.15,54.28,1.15Z" transform="translate(-41.72 -79.63)"/><path class="cls-17" d="M292.93,234.69a16.18,16.18,0,0,0-3.13-9.08,14.27,14.27,0,0,0-.22,18.08A16.21,16.21,0,0,0,292.93,234.69Z" transform="translate(-41.72 -79.63)"/><path class="cls-18" d="M288.92,243.55c11.94,0,21.59-8.81,21.59-8.81s-9.71-8.71-21.65-8.67-21.59,8.81-21.59,8.81S277,243.59,288.92,243.55Z" transform="translate(-41.72 -79.63)"/><polygon class="cls-17" points="183.12 160.69 179.24 157.91 176.52 161.17 173.79 157.91 169.91 160.69 172.69 156.82 169.43 154.09 172.69 151.36 169.91 147.48 173.78 150.26 176.51 147 179.24 150.26 183.12 147.48 180.34 151.36 183.6 154.09 180.36 157.09 183.12 160.69"/><polygon class="cls-17" points="316.72 161.7 312.85 158.92 310.12 162.18 307.39 158.92 303.51 161.7 306.29 157.83 303.03 155.1 306.29 152.37 303.51 148.49 307.39 151.27 310.11 148.01 312.84 151.27 316.72 148.49 313.94 152.37 317.2 155.09 313.96 158.1 316.72 161.7"/><ellipse class="cls-40" cx="252.81" cy="153.06" rx="4.13" ry="2.07"/><g class="cls-41"><path class="cls-12" d="M149.72,238.48l48.56,8.63.16-27.59-48.34-3.25S158.79,229.13,149.72,238.48Z" transform="translate(-41.72 -79.63)"/><path class="cls-13" d="M172.22,239.11a123.91,123.91,0,0,1-22.28-.88c-.08.08-.14.16-.22.25l48.56,8.63.1-17C191,236.12,181.58,238.48,172.22,239.11Z" transform="translate(-41.72 -79.63)"/><g class="cls-21"><rect class="cls-22" x="171.02" y="191.45" width="0.53" height="58.77" transform="translate(-106.93 290.11) rotate(-84.4)"/></g><g class="cls-21"><rect class="cls-22" x="171.24" y="196.23" width="0.53" height="58.77" transform="translate(-111.5 294.64) rotate(-84.4)"/></g><g class="cls-21"><rect class="cls-22" x="171.46" y="200.72" width="0.53" height="58.77" transform="translate(-115.76 298.91) rotate(-84.4)"/></g><g class="cls-21"><rect class="cls-22" x="171.38" y="204.89" width="0.53" height="58.77" transform="translate(-119.99 302.6) rotate(-84.4)"/></g><g class="cls-21"><rect class="cls-22" x="171.28" y="209.67" width="0.53" height="58.77" transform="matrix(0.14, -0.99, 0.99, 0.14, -130.52, 296.51)"/></g></g><path class="cls-39" d="M187.77,240.51s-4.65,14.47,0,25.16l2.87-1s-1.61-18.36,1.68-23.09Z" transform="translate(-41.72 -79.63)"/><path class="cls-16" d="M200.82,216.21l163.82,2.7s2.09,6.22,2.09,10.84l-165.6-4A19.27,19.27,0,0,0,200.82,216.21Z" transform="translate(-41.72 -79.63)"/><rect class="cls-33" x="117.58" y="29.08" width="197.72" height="56.94"/><rect class="cls-28" x="155.78" y="128.02" width="56.59" height="18.46" transform="translate(5.8 242.21) rotate(-90.21)"/><path class="cls-17" d="M182.63,161.35a12.55,12.55,0,0,1-5.28-6.12s4.47-1.08,8.19.85a12.55,12.55,0,0,1,5.28,6.13S186.35,163.28,182.63,161.35Z" transform="translate(-41.72 -79.63)"/><path class="cls-17" d="M182.58,147.31a12.47,12.47,0,0,0-5.23,6.16,13.2,13.2,0,0,0,8.18-.91,12.53,12.53,0,0,0,5.23-6.16S186.28,145.35,182.58,147.31Z" transform="translate(-41.72 -79.63)"/><path class="cls-17" d="M182.5,126.88a12.55,12.55,0,0,1-5.28-6.13s4.47-1.07,8.19.86a12.51,12.51,0,0,1,5.28,6.12S186.22,128.81,182.5,126.88Z" transform="translate(-41.72 -79.63)"/><path class="cls-17" d="M182.45,112.84a12.47,12.47,0,0,0-5.23,6.16s4.48,1,8.18-.91a12.58,12.58,0,0,0,5.23-6.17S186.15,110.88,182.45,112.84Z" transform="translate(-41.72 -79.63)"/><path class="cls-17" d="M185.45,130.71a12.57,12.57,0,0,1,5.27,6.13s-4.47,1.07-8.19-.85a12.57,12.57,0,0,1-5.27-6.13S181.73,128.78,185.45,130.71Z" transform="translate(-41.72 -79.63)"/><path class="cls-17" d="M185.5,144.76a12.58,12.58,0,0,0,5.23-6.17s-4.48-1-8.18.91a12.51,12.51,0,0,0-5.23,6.17S181.8,146.71,185.5,144.76Z" transform="translate(-41.72 -79.63)"/><rect class="cls-17" x="165.93" y="135.97" width="56.52" height="2.56" transform="translate(289.73 -136.57) rotate(90)"/><rect class="cls-17" x="145.95" y="135.97" width="56.52" height="2.56" transform="translate(269.75 -116.59) rotate(90)"/><rect class="cls-28" x="226.3" y="128.02" width="56.59" height="18.46" transform="translate(76.58 312.73) rotate(-90.21)"/><path class="cls-17" d="M253.15,161.35a12.55,12.55,0,0,1-5.28-6.12s4.47-1.08,8.19.85a12.55,12.55,0,0,1,5.28,6.13S256.87,163.28,253.15,161.35Z" transform="translate(-41.72 -79.63)"/><path class="cls-17" d="M253.1,147.31a12.47,12.47,0,0,0-5.23,6.16,13.2,13.2,0,0,0,8.18-.91,12.53,12.53,0,0,0,5.23-6.16S256.8,145.35,253.1,147.31Z" transform="translate(-41.72 -79.63)"/><path class="cls-17" d="M253,126.88a12.55,12.55,0,0,1-5.28-6.13s4.47-1.07,8.19.86a12.51,12.51,0,0,1,5.28,6.12S256.74,128.81,253,126.88Z" transform="translate(-41.72 -79.63)"/><path class="cls-17" d="M253,112.84a12.47,12.47,0,0,0-5.23,6.16s4.48,1,8.18-.91a12.58,12.58,0,0,0,5.23-6.17S256.67,110.88,253,112.84Z" transform="translate(-41.72 -79.63)"/><path class="cls-17" d="M256,130.71a12.57,12.57,0,0,1,5.27,6.13s-4.47,1.07-8.19-.85a12.57,12.57,0,0,1-5.27-6.13S252.25,128.78,256,130.71Z" transform="translate(-41.72 -79.63)"/><path class="cls-17" d="M256,144.76a12.58,12.58,0,0,0,5.23-6.17s-4.48-1-8.18.91a12.51,12.51,0,0,0-5.23,6.17S252.32,146.71,256,144.76Z" transform="translate(-41.72 -79.63)"/><rect class="cls-17" x="236.45" y="135.97" width="56.52" height="2.56" transform="translate(360.25 -207.09) rotate(90)"/><rect class="cls-17" x="216.47" y="135.97" width="56.52" height="2.56" transform="translate(340.27 -187.11) rotate(90)"/><rect class="cls-28" x="302.03" y="128.02" width="56.59" height="18.46" transform="translate(152.59 388.45) rotate(-90.21)"/><path class="cls-17" d="M328.87,161.35a12.5,12.5,0,0,1-5.27-6.12s4.47-1.08,8.18.85a12.55,12.55,0,0,1,5.28,6.13S332.59,163.28,328.87,161.35Z" transform="translate(-41.72 -79.63)"/><path class="cls-17" d="M328.82,147.31a12.53,12.53,0,0,0-5.23,6.16s4.48,1.05,8.18-.91A12.53,12.53,0,0,0,337,146.4S332.52,145.35,328.82,147.31Z" transform="translate(-41.72 -79.63)"/><path class="cls-17" d="M328.74,126.88a12.5,12.5,0,0,1-5.27-6.13s4.47-1.07,8.19.86a12.52,12.52,0,0,1,5.27,6.12S332.46,128.81,328.74,126.88Z" transform="translate(-41.72 -79.63)"/><path class="cls-17" d="M328.69,112.84a12.53,12.53,0,0,0-5.23,6.16s4.48,1,8.18-.91a12.51,12.51,0,0,0,5.23-6.17S332.39,110.88,328.69,112.84Z" transform="translate(-41.72 -79.63)"/><path class="cls-17" d="M331.69,130.71a12.55,12.55,0,0,1,5.28,6.13s-4.48,1.07-8.19-.85a12.55,12.55,0,0,1-5.28-6.13S328,128.78,331.69,130.71Z" transform="translate(-41.72 -79.63)"/><path class="cls-17" d="M331.74,144.76a12.51,12.51,0,0,0,5.23-6.17s-4.48-1-8.18.91a12.58,12.58,0,0,0-5.23,6.17S328,146.71,331.74,144.76Z" transform="translate(-41.72 -79.63)"/><rect class="cls-17" x="312.18" y="135.97" width="56.52" height="2.56" transform="translate(435.97 -282.82) rotate(90)"/><rect class="cls-17" x="292.2" y="135.97" width="56.52" height="2.56" transform="translate(415.99 -262.84) rotate(90)"/><rect class="cls-16" x="117.58" y="29.08" width="197.72" height="17.31"/><rect class="cls-13" x="117.58" y="71.06" width="197.72" height="14.97"/><ellipse class="cls-3" cx="61.31" cy="311.93" rx="40.87" ry="5.58"/><g class="cls-42"><path class="cls-9" d="M85,330c-7-1.67-15-5.54-15.64-12.72-.35-4,1.88-8.07.93-12-1-4.2-5.2-6.66-8.79-9.06s-7.29-6.08-6.51-10.33c.71-3.86,4.88-6.27,5.91-10.07,1.8-6.62-6.56-11.92-7.13-18.76-.49-6,6.07-11.1,12.1-10.36s10.84,5.88,12.79,11.64c.92,2.75,1.35,5.72,2.94,8.14,3.93,6,13.5,6.64,16.54,13.11,2.29,4.87-.25,11,2,15.85,1.47,3.14,4.63,5.09,6.81,7.78,4.57,5.67,4.06,14.48-.37,20.26S94.53,332,87.26,331.53Z" transform="translate(-41.72 -79.63)"/><g class="cls-43"><path class="cls-12" d="M91.89,331.39c-.85-.19-1.69-.37-2.53-.57-3.55-.82-7.15-2-9.75-4.67-3.39-3.49-4.08-8.42-4.38-13a21.17,21.17,0,0,0-1.54-7,18.3,18.3,0,0,0-2.74-4.4c-2.74-3.39-5.72-6.68-7.37-10.79-1.76-4.38-.49-8.59.86-12.87a18.15,18.15,0,0,0,1.09-5.91,11.26,11.26,0,0,0-.52-2.85,9.84,9.84,0,0,0-.81-2.08c-1.5-3.07-3.49-5.21-5.66-7.95a24.55,24.55,0,0,1-4-6.4,8.07,8.07,0,0,0-.78,4.13c.57,6.84,8.93,12.14,7.13,18.76-1,3.8-5.2,6.21-5.91,10.07-.78,4.25,2.92,7.93,6.51,10.33s7.77,4.86,8.79,9.06c.95,3.93-1.28,8-.93,12C70,324.43,78,328.3,85,330l2.26,1.56A25.61,25.61,0,0,0,91.89,331.39Z" transform="translate(-41.72 -79.63)"/></g><g class="cls-44"><path class="cls-39" d="M94.76,333.33l-.72.18c-.18-.7-17.92-70.44-35.75-87.08l.51-.54C76.79,262.67,94.58,332.63,94.76,333.33Z" transform="translate(-41.72 -79.63)"/></g><g class="cls-44"><path class="cls-39" d="M87.36,266.38,77.7,282.17l-.28-.1c-.68-.25-16.76-6-18.55-8.13l.58-.47c1.34,1.61,13.13,6.08,17.94,7.8L86.73,266Z" transform="translate(-41.72 -79.63)"/></g><g class="cls-44"><polygon class="cls-39" points="61.51 209.46 45.1 228.81 20.51 220.96 20.74 220.25 44.85 227.95 60.94 208.97 61.51 209.46"/></g></g><g class="cls-45"><path class="cls-9" d="M95.06,327c-7.17-4.85-14.54-12.62-12.17-20.95,1.32-4.67,5.56-8.28,6.16-13.1.64-5.15-3-9.71-6-13.93s-5.61-9.94-2.92-14.39c2.44-4,8.16-5,10.93-8.8,4.85-6.67-2.3-16.19,0-24.12,2-7,11.55-9.9,18-6.5s9.68,11.23,9.41,18.53c-.12,3.48-.91,7-.15,10.4,1.87,8.39,12.35,13.22,13,21.79.49,6.45-5,12.24-4.47,18.69.32,4.15,3,7.69,4.34,11.65,2.73,8.31-1.59,18-9,22.61s-17.24,4.47-25.21.84Z" transform="translate(-41.72 -79.63)"/><g class="cls-43"><path class="cls-12" d="M102.2,331.53c-.88-.56-1.75-1.13-2.61-1.7-3.63-2.44-7.18-5.3-9-9.42-2.32-5.36-1-11.19.63-16.54a25.58,25.58,0,0,0,1.24-8.45,22,22,0,0,0-1.21-6.12c-1.64-5-3.59-10-3.69-15.28-.12-5.67,3.11-9.86,6.44-14.1a21.54,21.54,0,0,0,3.75-6.18,14,14,0,0,0,.63-3.43,11.37,11.37,0,0,0,0-2.67c-.38-4.1-1.71-7.35-3-11.36a29.69,29.69,0,0,1-1.76-8.9A9.81,9.81,0,0,0,91,231.71c-2.28,7.93,4.87,17.45,0,24.12-2.77,3.83-8.49,4.76-10.93,8.8C77.41,269.08,80,274.79,83,279s6.67,8.78,6,13.93c-.6,4.82-4.84,8.43-6.16,13.1-2.37,8.33,5,16.1,12.17,20.95l1.87,2.72A29.54,29.54,0,0,0,102.2,331.53Z" transform="translate(-41.72 -79.63)"/></g><g class="cls-44"><path class="cls-39" d="M104.6,334.94l-.89-.1c.1-.86,9.86-86.83-3.1-113.13l.8-.4C114.49,247.85,104.7,334.08,104.6,334.94Z" transform="translate(-41.72 -79.63)"/></g><g class="cls-44"><path class="cls-39" d="M124.8,256.52l-17.59,13.64-.27-.24c-.67-.56-16.3-13.86-17.4-17l.85-.29C91.21,255,102.57,265,107.24,269l17-13.2Z" transform="translate(-41.72 -79.63)"/></g><g class="cls-44"><polygon class="cls-39" points="91.24 209.18 64.55 223.94 40.25 204.64 40.8 203.94 64.63 222.88 90.81 208.39 91.24 209.18"/></g></g><rect class="cls-17" x="28" y="252.05" width="61.49" height="60.63" rx="11.51"/><path class="cls-46" d="M131.21,366V345.1a13.46,13.46,0,0,0-13.42-13.42H83.14A13.46,13.46,0,0,0,69.72,345.1V366Z" transform="translate(-41.72 -79.63)"/><rect class="cls-17" x="24.11" y="244.25" width="69.29" height="34.64"/><rect class="cls-16" x="24.11" y="244.25" width="69.29" height="13.54"/><path class="cls-3" d="M447,397c0,3.6-20.59,6.52-46,6.52s-46-2.92-46-6.52,20.59-6.52,46-6.52S447,393.37,447,397Z" transform="translate(-41.72 -79.63)"/><path class="cls-12" d="M445.12,393.77c0,3.36-17.2,6.08-38.42,6.08s-38.43-2.72-38.43-6.08,17.21-6.08,38.43-6.08S445.12,390.41,445.12,393.77Z" transform="translate(-41.72 -79.63)"/><path class="cls-47" d="M420.53,393.77c0,1.21-6.19,2.19-13.83,2.19s-13.84-1-13.84-2.19,6.2-2.19,13.84-2.19S420.53,392.56,420.53,393.77Z" transform="translate(-41.72 -79.63)"/><path class="cls-12" d="M437.88,359.78a7.46,7.46,0,0,0-1.43.15c0-.71.05-1.43.05-2.15a44.74,44.74,0,0,0-.26-4.81h-59.1a44.72,44.72,0,0,0-.27,4.81c0,20.15,13.35,36.48,29.82,36.48,11.76,0,21.93-8.33,26.78-20.44a7.64,7.64,0,0,0,4.41,1.41,7.73,7.73,0,1,0,0-15.45Zm-2,13.47a5.74,5.74,0,0,1-2.08-.39,42.68,42.68,0,0,0,2.53-11.44,5.92,5.92,0,0,1-.45,11.83Z" transform="translate(-41.72 -79.63)"/><path class="cls-47" d="M431.63,375.3A25,25,0,0,1,415.41,387a32.85,32.85,0,0,1-20-2.73,39.26,39.26,0,0,1-17-14.78c4,14.41,15.12,24.77,28.24,24.77,14.92,0,27.29-13.41,29.47-30.93A37.92,37.92,0,0,1,431.63,375.3Z" transform="translate(-41.72 -79.63)"/><ellipse class="cls-12" cx="364.97" cy="273.62" rx="30.02" ry="8.06"/><ellipse class="cls-22" cx="364.97" cy="273.62" rx="25.7" ry="6.9"/><path class="cls-48" d="M397.94,348.78a55.76,55.76,0,0,0-6.94,1,19.37,19.37,0,0,0-3.31,1,6.47,6.47,0,0,0-1.44.81,1.45,1.45,0,0,0-.66,1.17,2.06,2.06,0,0,0,.66,1.25l.27.25.34.21a4.44,4.44,0,0,0,.72.38,16.82,16.82,0,0,0,3.27.92,55,55,0,0,0,6.92.74c4.65.31,9.33.26,14,.12,2.34-.07,4.68-.19,7-.38,1.16-.09,2.33-.18,3.49-.33.58-.08,1.16-.16,1.73-.27a5.25,5.25,0,0,0,1.66-.51,5.27,5.27,0,0,1-1.63.66c-.56.16-1.14.28-1.72.4-1.15.23-2.31.4-3.48.57-2.33.29-4.67.5-7,.67a125.31,125.31,0,0,1-14.11.13,55.91,55.91,0,0,1-7-.86,17.35,17.35,0,0,1-3.46-1,3.57,3.57,0,0,1-2.43-2.91,2.22,2.22,0,0,1,1-1.76,6.71,6.71,0,0,1,1.64-.84,19.34,19.34,0,0,1,3.47-.86A46.07,46.07,0,0,1,397.94,348.78Z" transform="translate(-41.72 -79.63)"/><path class="cls-48" d="M396.48,353.64c1.16-.07,2.3-.1,3.45-.16l3.45-.09,6.88-.17c2.29-.05,4.57-.13,6.86-.24,1.14-.05,2.28-.14,3.4-.29a13.4,13.4,0,0,0,1.68-.29,3.17,3.17,0,0,0,1.52-.7,2.85,2.85,0,0,1-1.43,1,14.68,14.68,0,0,1-1.67.53c-1.14.26-2.28.44-3.43.59a66.65,66.65,0,0,1-6.91.48c-2.3,0-4.61,0-6.91-.08S398.77,353.94,396.48,353.64Z" transform="translate(-41.72 -79.63)"/><path class="cls-48" d="M401.83,349.27a65.45,65.45,0,0,1,16.54-.49,56,56,0,0,1-8.25.77A57.49,57.49,0,0,1,401.83,349.27Z" transform="translate(-41.72 -79.63)"/><path class="cls-12" d="M405.06,340a7.38,7.38,0,0,0-2-4.39,28.28,28.28,0,0,0-3.62-3.28,17.2,17.2,0,0,1-3.87-4.14,11.1,11.1,0,0,1-1.66-6,7.82,7.82,0,0,1,3.06-6.07,5.36,5.36,0,0,1,1.87-.82,5,5,0,0,1,2.07,0,5.7,5.7,0,0,1,3.06,1.9,9.36,9.36,0,0,1,1.57,2.57,13.64,13.64,0,0,1,.84,2.68,12,12,0,0,1-.09,5.41,19.94,19.94,0,0,0-1.86-4.71,12.37,12.37,0,0,0-2.79-3.58,2.47,2.47,0,0,0-1.37-.6,1.28,1.28,0,0,0-.93.38,4.4,4.4,0,0,0-1.21,3,6.58,6.58,0,0,0,.05.95,7,7,0,0,0,.18,1,8.39,8.39,0,0,0,.69,1.93A20.5,20.5,0,0,0,401.8,330a18.53,18.53,0,0,1,3.05,4.56A6.66,6.66,0,0,1,405.06,340Z" transform="translate(-41.72 -79.63)"/><path class="cls-12" d="M409.94,329.42a5.72,5.72,0,0,1,.54-3.94,4.24,4.24,0,0,1,1.75-1.68,4.31,4.31,0,0,1,2.66-.37,5.92,5.92,0,0,1,4,3,6.79,6.79,0,0,1,.8,2.41,8.31,8.31,0,0,1-.09,2.39,7.75,7.75,0,0,1-2.25,4.12,12.35,12.35,0,0,1-3.43,2.11c-.52.24-1,.46-1.43.7a4.47,4.47,0,0,0-1.14.84,3,3,0,0,0-1,2.86,2.46,2.46,0,0,1-1-1.73,4.54,4.54,0,0,1,.23-2.16,5.62,5.62,0,0,1,1.12-1.91,11.83,11.83,0,0,1,1.45-1.4,17.61,17.61,0,0,0,2.35-2.09,5,5,0,0,0,1-2.15,4.23,4.23,0,0,0,.09-1.17,3.11,3.11,0,0,0-.22-1,3.18,3.18,0,0,0-1.25-1.6,1.72,1.72,0,0,0-2,.18A7.42,7.42,0,0,0,409.94,329.42Z" transform="translate(-41.72 -79.63)"/><polygon class="cls-5" points="350.48 122.34 346.11 109.5 333.16 105.48 346.45 100.9 350.67 87.49 355.04 100.33 367.99 104.34 354.42 109.25 350.48 122.34"/><polygon class="cls-5" points="77.76 136.63 73.4 123.79 60.45 119.78 73.73 115.19 77.96 101.78 82.32 114.62 95.27 118.64 81.7 123.55 77.76 136.63"/><polygon class="cls-12" points="57.58 105.36 55.35 98.82 48.75 96.77 55.53 94.44 57.68 87.6 59.91 94.14 66.51 96.19 59.59 98.69 57.58 105.36"/><polygon class="cls-49" points="17.36 154.39 15.13 147.84 8.53 145.79 15.3 143.46 17.45 136.62 19.68 143.17 26.28 145.21 19.36 147.72 17.36 154.39"/><polygon class="cls-49" points="363.36 75.02 361.13 68.47 354.53 66.43 361.31 64.09 363.46 57.26 365.68 63.8 372.29 65.85 365.37 68.35 363.36 75.02"/><polygon class="cls-49" points="330.08 39.47 327.86 32.93 321.25 30.88 328.03 28.55 330.18 21.71 332.4 28.25 339.01 30.3 332.09 32.8 330.08 39.47"/><polygon class="cls-12" points="399.12 223.96 396.89 217.41 390.29 215.37 397.06 213.03 399.21 206.19 401.44 212.74 408.04 214.79 401.13 217.29 399.12 223.96"/><polygon class="cls-5" points="333.65 77.19 331.43 70.64 324.83 68.59 331.6 66.26 333.75 59.42 335.98 65.97 342.58 68.01 335.66 70.52 333.65 77.19"/><polygon class="cls-5" points="385.14 201.42 382.91 194.88 376.31 192.83 383.08 190.5 385.24 183.66 387.46 190.21 394.06 192.25 387.15 194.75 385.14 201.42"/><path class="cls-5" d="M93.59,220.71a1.95,1.95,0,1,1-2-1.94A1.95,1.95,0,0,1,93.59,220.71Z" transform="translate(-41.72 -79.63)"/><path class="cls-5" d="M130.74,234a1.95,1.95,0,1,1-1.94-2A1.94,1.94,0,0,1,130.74,234Z" transform="translate(-41.72 -79.63)"/><path class="cls-5" d="M432,250.26a1.95,1.95,0,1,1-1.94-1.94A1.94,1.94,0,0,1,432,250.26Z" transform="translate(-41.72 -79.63)"/><path class="cls-5" d="M112.11,151.26a1.95,1.95,0,1,1-2-1.95A1.94,1.94,0,0,1,112.11,151.26Z" transform="translate(-41.72 -79.63)"/><path class="cls-5" d="M436,314.09a1.95,1.95,0,1,1-1.95-1.94A1.95,1.95,0,0,1,436,314.09Z" transform="translate(-41.72 -79.63)"/></g></g></svg>